<?xml version="1.0" encoding="UTF-8"?>
<svg version="1.1" xmlns="http://www.w3.org/2000/svg" width="64" height="64">
<path d="M0 0 C21.12 0 42.24 0 64 0 C64.0825 6.8475 64.165 13.695 64.25 20.75 C64.28641602 22.9062793 64.32283203 25.06255859 64.36035156 27.28417969 C64.37203597 28.99673466 64.38222838 30.70930075 64.390625 32.421875 C64.41108887 33.3082666 64.43155273 34.1946582 64.45263672 35.10791016 C64.45312012 35.9601416 64.45360352 36.81237305 64.45410156 37.69042969 C64.46298401 38.42767273 64.47186646 39.16491577 64.48101807 39.92449951 C63.77713205 42.96163236 62.4564975 44.1311157 60 46 C57.41992188 46.50793457 57.41992188 46.50793457 54.46875 46.51757812 C53.36080078 46.53018677 52.25285156 46.54279541 51.11132812 46.55578613 C49.91958984 46.54768921 48.72785156 46.53959229 47.5 46.53125 C45.65825195 46.53699036 45.65825195 46.53699036 43.77929688 46.54284668 C41.18358541 46.54556842 38.58784664 46.53818911 35.9921875 46.52148438 C32.01500401 46.50008075 28.03962718 46.52127963 24.0625 46.546875 C21.54166267 46.54423177 19.02082647 46.53910691 16.5 46.53125 C15.30826172 46.53934692 14.11652344 46.54744385 12.88867188 46.55578613 C11.22674805 46.53687317 11.22674805 46.53687317 9.53125 46.51757812 C8.55736328 46.51439575 7.58347656 46.51121338 6.58007812 46.50793457 C3.22400421 45.84723134 2.03882884 44.71047611 0 42 C-0.48101807 39.92449951 -0.48101807 39.92449951 -0.45410156 37.69042969 C-0.45361816 36.83819824 -0.45313477 35.9859668 -0.45263672 35.10791016 C-0.43217285 34.22151855 -0.41170898 33.33512695 -0.390625 32.421875 C-0.38659668 31.60025879 -0.38256836 30.77864258 -0.37841797 29.93212891 C-0.35753383 26.87119119 -0.30168804 23.81057252 -0.25 20.75 C-0.1675 13.9025 -0.085 7.055 0 0 Z M35 9 C33.65853506 12.43438215 32.32824095 15.87298417 31 19.3125 C30.6184375 20.28896484 30.236875 21.26542969 29.84375 22.27148438 C29.30234375 23.67817383 29.30234375 23.67817383 28.75 25.11328125 C28.41484375 25.97735596 28.0796875 26.84143066 27.734375 27.73168945 C26.84599308 30.07831974 26.84599308 30.07831974 27 33 C27.66 33 28.32 33 29 33 C30.34146494 29.56561785 31.67175905 26.12701583 33 22.6875 C33.3815625 21.71103516 33.763125 20.73457031 34.15625 19.72851562 C34.5171875 18.79072266 34.878125 17.85292969 35.25 16.88671875 C35.58515625 16.02264404 35.9203125 15.15856934 36.265625 14.26831055 C37.15400692 11.92168026 37.15400692 11.92168026 37 9 C36.34 9 35.68 9 35 9 Z M18.875 17.5 C17.92625 18.325 16.9775 19.15 16 20 C17.39332574 23.36720387 18.9789286 24.9859524 22 27 C22.66 26.67 23.32 26.34 24 26 C22.68 24.68 21.36 23.36 20 22 C21.20381448 19.50638429 22.45428722 17.31856917 24 15 C21.41073669 15 20.79948339 15.82653618 18.875 17.5 Z M40 15 C41.32 16.65 42.64 18.3 44 20 C42.79618552 22.49361571 41.54571278 24.68143083 40 27 C43.37503669 25.8141763 45.64722731 24.72426311 48 22 C46.76210371 18.28631113 45.14775123 17.22645819 42 15 C41.34 15 40.68 15 40 15 Z " fill="#000000" transform="translate(0,18)"/>
<path d="M0 0 C1.10794922 -0.01260864 2.21589844 -0.02521729 3.35742188 -0.03820801 C4.54916016 -0.03011108 5.74089844 -0.02201416 6.96875 -0.01367188 C8.19658203 -0.01749878 9.42441406 -0.02132568 10.68945312 -0.02526855 C13.28516459 -0.02799029 15.88090336 -0.02061099 18.4765625 -0.00390625 C22.45374599 0.01749738 26.42912282 -0.0037015 30.40625 -0.02929688 C32.92708733 -0.02665365 35.44792353 -0.02152878 37.96875 -0.01367188 C39.16048828 -0.0217688 40.35222656 -0.02986572 41.58007812 -0.03820801 C43.24200195 -0.01929504 43.24200195 -0.01929504 44.9375 0 C45.91138672 0.00318237 46.88527344 0.00636475 47.88867188 0.00964355 C50.46875 0.51757813 50.46875 0.51757813 54.46875 4.51757812 C54.46875 8.47757813 54.46875 12.43757812 54.46875 16.51757812 C33.34875 16.51757812 12.22875 16.51757812 -9.53125 16.51757812 C-9.53125 0.0311453 -9.53125 0.0311453 0 0 Z M-1.53125 7.51757812 C-1.53125 8.17757813 -1.53125 8.83757813 -1.53125 9.51757812 C-0.21125 9.51757812 1.10875 9.51757812 2.46875 9.51757812 C2.46875 8.85757812 2.46875 8.19757812 2.46875 7.51757812 C1.14875 7.51757812 -0.17125 7.51757812 -1.53125 7.51757812 Z M6.46875 7.51757812 C6.46875 8.17757813 6.46875 8.83757813 6.46875 9.51757812 C7.78875 9.51757812 9.10875 9.51757812 10.46875 9.51757812 C10.46875 8.85757812 10.46875 8.19757812 10.46875 7.51757812 C9.14875 7.51757812 7.82875 7.51757812 6.46875 7.51757812 Z M27.46875 7.51757812 C27.46875 8.17757813 27.46875 8.83757813 27.46875 9.51757812 C33.73875 9.51757812 40.00875 9.51757812 46.46875 9.51757812 C46.46875 8.85757812 46.46875 8.19757812 46.46875 7.51757812 C40.19875 7.51757812 33.92875 7.51757812 27.46875 7.51757812 Z " fill="#000000" transform="translate(9.53125,-0.517578125)"/>
</svg>
